<?xml version="1.0" encoding="utf-8"?>
<!-- Generator: Adobe Illustrator 21.0.0, SVG Export Plug-In . SVG Version: 6.00 Build 0)  -->
<svg version="1.1" xmlns="http://www.w3.org/2000/svg" xmlns:xlink="http://www.w3.org/1999/xlink" x="0px" y="0px"
	 viewBox="0 0 841.9 595.3" style="enable-background:new 0 0 841.9 595.3;" xml:space="preserve">
<style type="text/css">
	.st0{display:none;}
	.st1{display:inline;}
	.st2{fill:#FFFFFF;}
	.st3{fill:#1DBF73;}
	.st4{fill:#FFFFFE;}
	.st5{opacity:0.5;fill:url(#SVGID_1_);}
</style>
<g id="Layer_1" class="st0">
	<g class="st1">
		<rect class="st2" width="841.9" height="595.3"/>
	</g>
</g>
<g id="Layer_2">
	<g>
		<g>
			<path class="st3" d="M288,281.3v44.5h36v-9.2h-26v-12.9h14.1c3.6,0,5.3-1.7,5.3-5.1v-3.3H298v-10.7h26V276h-30.9
				C289.6,276,288,277.9,288,281.3z"/>
			<path class="st3" d="M345.9,286.4c-8.9,0-14,3.5-15.2,10.7h9.7c0.5-1.8,2.4-2.7,5.9-2.7c4,0,6.1,1.1,6.3,3.3
				c0,2.1-2.1,3.4-6.3,3.9c-9.8,1-16.6,3.4-16.8,12.8c0,8.6,6.5,12.9,15.8,12.2c10.5-0.7,16.9-5.5,16.9-16.2v-13.2
				C362,290,356.6,286.4,345.9,286.4z M352.8,309.9c0,5.5-3.3,8.7-8.7,8.7c-3.1,0-4.7-1.5-4.9-4.5c0-2.9,2-4.7,5.9-5.4
				c2.9-0.6,5.5-1.4,7.8-2.3V309.9z"/>
			<path class="st3" d="M368.4,305.8v20h9.9v-20.2c0-5.6,2.7-8.5,8.1-8.5h3.3V287h-1.4C375.4,287,368.7,293.3,368.4,305.8z"/>
			<path class="st3" d="M412.4,286.4c-11.1,0-16.6,5.5-16.6,16.6v22.8h9.9V301c0.1-4,2.3-6,6.6-6c4.3,0,6.5,2,6.7,6V321
				c0,3.1,1.6,4.6,4.8,4.8h5V303C428.9,291.9,423.5,286.4,412.4,286.4z"/>
			<path class="st3" d="M439.7,272.6h-5.1v7.6h9.7v-2.9C444.5,274.2,443,272.6,439.7,272.6z"/>
			<path class="st3" d="M439.7,287h-5.1v38.8h9.7v-34.1C444.4,288.6,442.9,287,439.7,287z"/>
			<path class="st3" d="M468,286.4c-11.1,0-16.6,5.5-16.6,16.6v22.8h9.9V301c0.1-4,2.3-6,6.6-6c4.3,0,6.5,2,6.7,6V321
				c0,3.1,1.6,4.6,4.8,4.8h5V303C484.5,291.9,479.1,286.4,468,286.4z"/>
			<path class="st3" d="M507.7,286.9c-12,0.2-18,6.7-18,19.6c0,13.3,5.1,20.1,15.5,20.1c4.8,0,8.6-1.9,11.1-5.7v4c0,6-2.6,9-7.8,9
				c-4,0-6.3-1.3-7-4.1h-10.8c2.3,8.2,7.8,12.3,16.6,12.3c12.4-0.2,18.5-5.1,18.5-14.9v-22.9C525.9,292.5,519.8,286.8,507.7,286.9z
				 M507.9,318c-5.3,0-7.9-3.7-8.1-11.2c0-7.8,2.7-11.7,8.3-11.7c5.6,0,8.3,3.9,8.2,11.7C515.9,314.2,513.2,318,507.9,318z"/>
			<path class="st3" d="M549.4,301.6c-5.1-1-7.5-2.5-7.5-4.5c0-2,1.9-3,5.7-3c3.2,0,5.2,1,5.9,2.6c0.6,1.5,2.1,2.3,4.3,2.4h6.2
				c-0.2-4-1.8-7.2-4.6-9.5c-2.9-2.2-6.9-3.3-11.9-3.3c-8.9,0.1-15.5,4.1-15.5,12.5c0.1,6.1,4.5,9.9,13,11.4c6.7,1.2,10,2.8,10,4.8
				c0,2.5-2,3.7-6.2,3.7c-4.8,0-7.8-1.5-8.1-5.7h-10c0,4.5,1.5,7.8,4.4,10c2.6,2.3,6.8,3.4,12.2,3.4c10.3,0,17.7-3.5,17.7-13
				c0-2.6-0.9-5-2.7-6.9C560.3,304.6,555.9,302.9,549.4,301.6z"/>
			<path class="st3" d="M608.6,284.2c4.8,0,8.1,1.8,9.8,5.4c1,2,2.6,3,4.8,3h6.2c-0.5-5.4-2.5-9.8-6-12.9c-3.7-3.1-8.6-4.5-14.7-4.5
				c-15.8,0-23.8,9.7-23.8,25.7c0,15.5,7.6,25.7,22.9,25.7c12.6,0,20.7-6.5,21.6-18h-9.9c-1.1,5.5-4.8,9-11.1,9
				c-9.3,0-13.3-6.9-13.3-16.6C594.9,290.8,599.1,284.2,608.6,284.2z"/>
			<path class="st3" d="M651.1,286.4c-8.9,0-14,3.5-15.2,10.7h9.7c0.5-1.8,2.4-2.7,5.9-2.7c4,0,6.1,1.1,6.3,3.3
				c0,2.1-2.1,3.4-6.3,3.9c-9.8,1-16.6,3.4-16.8,12.8c0,8.6,6.5,12.9,15.8,12.2c10.5-0.7,16.9-5.5,16.9-16.2v-13.2
				C667.3,290,661.8,286.4,651.1,286.4z M658,309.9c0,5.5-3.3,8.7-8.7,8.7c-3.1,0-4.7-1.5-4.9-4.5c0-2.9,2-4.7,5.9-5.4
				c2.8-0.6,5.5-1.4,7.8-2.3V309.9z"/>
			<path class="st3" d="M680.2,276h-5.1v49.8h9.8v-45.1C684.9,278.2,682.7,276,680.2,276z"/>
			<path class="st3" d="M698.3,276h-5.1v49.8h9.8v-45.1C703,278.2,700.9,276,698.3,276z"/>
		</g>
		<g>
			<path class="st3" d="M257.8,212.8h-22.4l0,117.8c0.1,0,0.2,0,0.3,0.1c2.4,0.6,4.8,1.4,7.3,2.4c4.6,1.9,9.3,4.4,13.6,7.4
				c0.1,0.1,0.1,0.1,0.2,0.1l0.1,0.1c0.2,0.1,0.4,0.3,0.6,0.4c0.1,0.1,0.2,0.1,0.3,0.2l0,0L257.8,212.8z"/>
			<g>
				<path class="st3" d="M179.9,325.4c-0.2,0.2-0.5,0.4-0.6,0.6c0.1,0.1,0.2,0.3,0.4,0.5c0.1,0.1,0.1,0.1,0.2,0.2
					c0.2,0.2,0.3,0.4,0.5,0.6c0.1,0.1,0.1,0.2,0.2,0.2c0.3,0.3,0.6,0.6,1,1c0.8,0.8,1.8,1.7,3.1,2.6v-10.8
					C183.3,321.9,181.8,323.6,179.9,325.4z"/>
				<path class="st3" d="M162.2,253.1v27.5c2.4,1,4.7,2.3,6.9,3.6c4.2,2.6,8.1,5.8,11.4,9c0.3,0.3,0.7,0.7,1,1l3.2,3.9v-45H162.2z"
					/>
			</g>
			<path class="st3" d="M198,233.7v106.6c3.2,2.3,12.4,6.7,14.3,7.1c0.6-1.8,1.3-3.5,2-5.2c0.6-1.4,3.4-7.1,6.1-9.9v-98.6H198z"/>
		</g>
		<g>
			<path class="st3" d="M259.5,353.3c-8.3-11.1-31.9-19.8-34.8-14.7c0,0-3.1,4.5-5,10.2c-1.6,4.9-3.2,11.1-23.3-0.6h0
				c-32.1-19.3-26-24.3-21.6-28.4c4.4-4.1,7.2-8.8,7.2-8.8c3.3-4.8-14.5-22.5-28-25.4c-13.5-2.9-15.2,29-15.2,29
				c0.4,22.9,23,40.3,35.8,48.4c8.6,6.3,39.9,27.2,64.9,16.2C239.6,379.3,267.8,364.4,259.5,353.3"/>
			<g>
				<path class="st4" d="M142.8,312.1c0,0,1.7-15.2,4-15.2C149,296.9,146.8,302.4,142.8,312.1"/>
				<path class="st4" d="M150.8,291.7c0,0.8-0.7,1.5-1.5,1.5c-0.8,0-1.5-0.7-1.5-1.5c0-0.8,0.7-1.5,1.5-1.5
					C150.1,290.2,150.8,290.9,150.8,291.7"/>
			</g>
			
				<linearGradient id="SVGID_1_" gradientUnits="userSpaceOnUse" x1="-128.0023" y1="667.9999" x2="-127.0023" y2="667.9999" gradientTransform="matrix(-499.0729 133.4315 133.4315 499.0729 -152778.0469 -315964.25)">
				<stop  offset="0" style="stop-color:#000000;stop-opacity:0"/>
				<stop  offset="1" style="stop-color:#000000"/>
			</linearGradient>
			<path class="st5" d="M173.6,351.7c20.3,13.6,57.9,39.4,78.8-5.1c-10.4-7.5-25.3-11.9-27.7-8c0,0-3.1,4.5-5,10.2
				c-1.6,4.9-3.2,11.1-23.3-0.6c-25.5-15.3-26.9-21.7-24.2-25.6C168.5,326,155.3,339.5,173.6,351.7z"/>
		</g>
	</g>
</g>
</svg>
